<svg width="373" height="35" viewBox="0 0 373 35" fill="none" xmlns="http://www.w3.org/2000/svg">
<path d="M13.464 0.399998C18.072 0.399998 21.912 2.016 24.984 5.248C28.088 8.48 29.64 12.464 29.64 17.2C29.64 21.936 28.088 25.92 24.984 29.152C21.912 32.384 18.072 34 13.464 34H0.12V0.399998H13.464ZM13.464 27.664C16.376 27.664 18.744 26.704 20.568 24.784C22.392 22.832 23.304 20.304 23.304 17.2C23.304 14.096 22.392 11.584 20.568 9.664C18.744 7.712 16.376 6.736 13.464 6.736H6.744V27.664H13.464ZM54.4988 31.024C52.0348 33.456 49.0268 34.672 45.4748 34.672C41.9228 34.672 38.9148 33.456 36.4508 31.024C34.0188 28.56 32.8027 25.552 32.8027 22C32.8027 18.448 34.0188 15.456 36.4508 13.024C38.9148 10.56 41.9228 9.328 45.4748 9.328C49.0268 9.328 52.0348 10.56 54.4988 13.024C56.9628 15.456 58.1948 18.448 58.1948 22C58.1948 25.552 56.9628 28.56 54.4988 31.024ZM40.8188 26.752C42.0668 28 43.6188 28.624 45.4748 28.624C47.3308 28.624 48.8828 28 50.1308 26.752C51.3788 25.504 52.0028 23.92 52.0028 22C52.0028 20.08 51.3788 18.496 50.1308 17.248C48.8828 16 47.3308 15.376 45.4748 15.376C43.6188 15.376 42.0668 16 40.8188 17.248C39.6028 18.496 38.9948 20.08 38.9948 22C38.9948 23.92 39.6028 25.504 40.8188 26.752ZM89.0948 9.328C91.8468 9.328 94.0388 10.224 95.6708 12.016C97.3348 13.808 98.1668 16.208 98.1668 19.216V34H91.9748V19.648C91.9748 18.208 91.6228 17.088 90.9188 16.288C90.2148 15.488 89.2228 15.088 87.9427 15.088C86.5348 15.088 85.4308 15.552 84.6308 16.48C83.8628 17.408 83.4788 18.752 83.4788 20.512V34H77.2868V19.648C77.2868 18.208 76.9348 17.088 76.2308 16.288C75.5268 15.488 74.5348 15.088 73.2548 15.088C71.8788 15.088 70.7748 15.552 69.9428 16.48C69.1428 17.408 68.7428 18.752 68.7428 20.512V34H62.5508V10H68.7428V12.544C70.1828 10.4 72.4068 9.328 75.4148 9.328C78.3588 9.328 80.5348 10.48 81.9428 12.784C83.5428 10.48 85.9268 9.328 89.0948 9.328ZM141.97 34H134.338L122.338 18.256V34H115.714V0.399998H122.338V15.232L133.858 0.399998H141.49L129.058 16.72L141.97 34ZM151.149 14.128C151.725 12.592 152.669 11.44 153.981 10.672C155.325 9.904 156.813 9.52 158.445 9.52V16.432C156.557 16.208 154.861 16.592 153.357 17.584C151.885 18.576 151.149 20.224 151.149 22.528V34H144.957V10H151.149V14.128ZM179.416 10H185.608V34H179.416V31.168C177.56 33.504 174.952 34.672 171.592 34.672C168.392 34.672 165.64 33.456 163.336 31.024C161.064 28.56 159.928 25.552 159.928 22C159.928 18.448 161.064 15.456 163.336 13.024C165.64 10.56 168.392 9.328 171.592 9.328C174.952 9.328 177.56 10.496 179.416 12.832V10ZM167.992 26.896C169.24 28.144 170.824 28.768 172.744 28.768C174.664 28.768 176.248 28.144 177.496 26.896C178.776 25.616 179.416 23.984 179.416 22C179.416 20.016 178.776 18.4 177.496 17.152C176.248 15.872 174.664 15.232 172.744 15.232C170.824 15.232 169.24 15.872 167.992 17.152C166.744 18.4 166.12 20.016 166.12 22C166.12 23.984 166.744 25.616 167.992 26.896ZM207.015 10H213.831L204.711 34H197.655L188.535 10H195.351L201.159 26.8L207.015 10ZM227.303 34.672C223.687 34.672 220.663 33.456 218.231 31.024C215.831 28.592 214.631 25.584 214.631 22C214.631 18.416 215.831 15.408 218.231 12.976C220.663 10.544 223.687 9.328 227.303 9.328C229.639 9.328 231.767 9.888 233.687 11.008C235.607 12.128 237.063 13.632 238.055 15.52L232.727 18.64C232.247 17.648 231.511 16.864 230.519 16.288C229.559 15.712 228.471 15.424 227.255 15.424C225.399 15.424 223.863 16.048 222.647 17.296C221.431 18.512 220.823 20.08 220.823 22C220.823 23.888 221.431 25.456 222.647 26.704C223.863 27.92 225.399 28.528 227.255 28.528C228.503 28.528 229.607 28.256 230.567 27.712C231.559 27.136 232.295 26.352 232.775 25.36L238.151 28.432C237.095 30.32 235.607 31.84 233.687 32.992C231.767 34.112 229.639 34.672 227.303 34.672ZM254.77 9.328C257.394 9.328 259.554 10.208 261.25 11.968C262.978 13.728 263.842 16.16 263.842 19.264V34H257.65V20.032C257.65 18.432 257.218 17.216 256.354 16.384C255.49 15.52 254.338 15.088 252.898 15.088C251.298 15.088 250.018 15.584 249.058 16.576C248.098 17.568 247.618 19.056 247.618 21.04V34H241.426V0.399998H247.618V12.688C249.122 10.448 251.506 9.328 254.77 9.328ZM274.361 24.544C275.193 27.552 277.449 29.056 281.129 29.056C283.497 29.056 285.289 28.256 286.505 26.656L291.497 29.536C289.129 32.96 285.641 34.672 281.033 34.672C277.065 34.672 273.881 33.472 271.481 31.072C269.081 28.672 267.881 25.648 267.881 22C267.881 18.384 269.065 15.376 271.433 12.976C273.801 10.544 276.841 9.328 280.553 9.328C284.073 9.328 286.969 10.544 289.241 12.976C291.545 15.408 292.697 18.416 292.697 22C292.697 22.8 292.617 23.648 292.457 24.544H274.361ZM274.265 19.744H286.505C286.153 18.112 285.417 16.896 284.297 16.096C283.209 15.296 281.961 14.896 280.553 14.896C278.889 14.896 277.513 15.328 276.425 16.192C275.337 17.024 274.617 18.208 274.265 19.744ZM310.364 9.328C312.988 9.328 315.148 10.208 316.844 11.968C318.572 13.728 319.436 16.16 319.436 19.264V34H313.244V20.032C313.244 18.432 312.812 17.216 311.948 16.384C311.084 15.52 309.932 15.088 308.492 15.088C306.892 15.088 305.612 15.584 304.652 16.576C303.692 17.568 303.212 19.056 303.212 21.04V34H297.02V10H303.212V12.688C304.716 10.448 307.1 9.328 310.364 9.328ZM346.851 34H339.651L330.915 23.104V34H324.723V0.399998H330.915V20.56L339.171 10H346.563L336.915 21.856L346.851 34ZM368.655 31.024C366.191 33.456 363.183 34.672 359.631 34.672C356.079 34.672 353.071 33.456 350.607 31.024C348.175 28.56 346.959 25.552 346.959 22C346.959 18.448 348.175 15.456 350.607 13.024C353.071 10.56 356.079 9.328 359.631 9.328C363.183 9.328 366.191 10.56 368.655 13.024C371.119 15.456 372.351 18.448 372.351 22C372.351 25.552 371.119 28.56 368.655 31.024ZM354.975 26.752C356.223 28 357.775 28.624 359.631 28.624C361.487 28.624 363.039 28 364.287 26.752C365.535 25.504 366.159 23.92 366.159 22C366.159 20.08 365.535 18.496 364.287 17.248C363.039 16 361.487 15.376 359.631 15.376C357.775 15.376 356.223 16 354.975 17.248C353.759 18.496 353.151 20.08 353.151 22C353.151 23.92 353.759 25.504 354.975 26.752Z" fill="white"/>
</svg>
