<svg width="22" height="22" viewBox="0 0 22 22" fill="none" xmlns="http://www.w3.org/2000/svg">
<path d="M4.58333 3.66675L2.75 5.50008" stroke="#EB5757" stroke-width="2" stroke-linecap="round"/>
<path d="M17.4167 3.66675L19.25 5.50008" stroke="#EB5757" stroke-width="2" stroke-linecap="round"/>
<path fill-rule="evenodd" clip-rule="evenodd" d="M11.0001 18.3334C15.0502 18.3334 18.3334 15.0502 18.3334 11.0001C18.3334 6.94999 15.0502 3.66675 11.0001 3.66675C6.94999 3.66675 3.66675 6.94999 3.66675 11.0001C3.66675 15.0502 6.94999 18.3334 11.0001 18.3334ZM13.6143 9.33311C13.9593 8.90185 13.8894 8.27256 13.4581 7.92755C13.0268 7.58254 12.3976 7.65246 12.0525 8.08372L10.7919 9.65947L8.80478 8.3347C8.34525 8.02835 7.72438 8.15252 7.41803 8.61205C7.11168 9.07158 7.23585 9.69245 7.69538 9.9988L10.2547 11.705C10.7942 12.0647 11.5191 11.9521 11.9241 11.4458L13.6143 9.33311Z" fill="#EB5757"/>
</svg>
