<svg width="16" height="10" viewBox="0 0 16 10" fill="none" xmlns="http://www.w3.org/2000/svg">
<path fill-rule="evenodd" clip-rule="evenodd" d="M10 2C9.44771 2 9 1.55228 9 1C9 0.447715 9.44771 0 10 0H15C15.5523 0 16 0.447715 16 1V6C16 6.55228 15.5523 7 15 7C14.4477 7 14 6.55228 14 6V3.41421L9.70711 7.70711C9.31658 8.09763 8.68342 8.09763 8.29289 7.70711L6 5.41421L1.70711 9.70711C1.31658 10.0976 0.683417 10.0976 0.292893 9.70711C-0.0976311 9.31658 -0.0976311 8.68342 0.292893 8.29289L5.29289 3.29289C5.68342 2.90237 6.31658 2.90237 6.70711 3.29289L9 5.58579L12.5858 2H10Z" fill="#EB5757"/>
</svg>
