<?xml version="1.0"?>
<svg xmlns="http://www.w3.org/2000/svg" xmlns:xlink="http://www.w3.org/1999/xlink" version="1.1" xml:space="preserve">
	<defs>


		<symbol id="eye" width="100%" height="100%" viewBox="0 0 14 12">
			<path d="M5.18759 6C5.18759 6.46413 5.37196 6.90925 5.70015 7.23744C6.02834 7.56563 6.47346 7.75 6.93759 7.75C7.40172 7.75 7.84684 7.56563 8.17503 7.23744C8.50322 6.90925 8.68759 6.46413 8.68759 6C8.68759 5.53587 8.50322 5.09075 8.17503 4.76256C7.84684 4.43437 7.40172 4.25 6.93759 4.25C6.47346 4.25 6.02834 4.43437 5.70015 4.76256C5.37196 5.09075 5.18759 5.53587 5.18759 6ZM13.722 5.59688C12.2407 2.47656 10.0017 0.90625 7.00009 0.90625C3.99696 0.90625 1.75947 2.47656 0.278215 5.59844C0.218802 5.72425 0.187988 5.86165 0.187988 6.00078C0.187988 6.13991 0.218802 6.27732 0.278215 6.40312C1.75947 9.52344 3.99853 11.0938 7.00009 11.0938C10.0032 11.0938 12.2407 9.52344 13.722 6.40156C13.8423 6.14844 13.8423 5.85469 13.722 5.59688ZM6.93759 8.75C5.41884 8.75 4.18759 7.51875 4.18759 6C4.18759 4.48125 5.41884 3.25 6.93759 3.25C8.45634 3.25 9.68759 4.48125 9.68759 6C9.68759 7.51875 8.45634 8.75 6.93759 8.75Z" fill="currentColor" />
		</symbol>
		<symbol id="key" width="100%" height="100%" viewBox="0 0 14 14">
			<path fill-rule="evenodd" clip-rule="evenodd" d="M13.4001 5.4001C13.4001 8.05106 11.2511 10.2001 8.6001 10.2001C8.11516 10.2001 7.64702 10.1282 7.20575 9.99444L5.4001 11.8001H3.8001V13.4001H0.600098V10.2001L4.00575 6.79444C3.87201 6.35318 3.8001 5.88504 3.8001 5.4001C3.8001 2.74913 5.94913 0.600098 8.6001 0.600098C11.2511 0.600098 13.4001 2.74913 13.4001 5.4001ZM8.6001 2.2001C8.15827 2.2001 7.8001 2.55827 7.8001 3.0001C7.8001 3.44193 8.15827 3.8001 8.6001 3.8001C9.48375 3.8001 10.2001 4.51644 10.2001 5.4001C10.2001 5.84193 10.5583 6.2001 11.0001 6.2001C11.4419 6.2001 11.8001 5.84193 11.8001 5.4001C11.8001 3.63279 10.3674 2.2001 8.6001 2.2001Z" fill="currentColor" />
		</symbol>
		<symbol id="chart" width="100%" height="100%" viewBox="0 0 18 16">
			<path d="M4.09091 8.72727H0.818182C0.327273 8.72727 0 9.01818 0 9.45455V15.2727C0 15.7091 0.327273 16 0.818182 16H4.09091C4.58182 16 4.90909 15.7091 4.90909 15.2727V9.45455C4.90909 9.01818 4.58182 8.72727 4.09091 8.72727ZM17.1818 5.81818H13.9091C13.4182 5.81818 13.0909 6.10909 13.0909 6.54545V15.2727C13.0909 15.7091 13.4182 16 13.9091 16H17.1818C17.6727 16 18 15.7091 18 15.2727V6.54545C18 6.10909 17.6727 5.81818 17.1818 5.81818ZM10.6364 0H7.36364C6.87273 0 6.54545 0.290909 6.54545 0.727273V15.2727C6.54545 15.7091 6.87273 16 7.36364 16H10.6364C11.1273 16 11.4545 15.7091 11.4545 15.2727V0.727273C11.4545 0.290909 11.1273 0 10.6364 0Z" fill="currentColor" />
		</symbol>
		<symbol id="chat" width="100%" height="100%" viewBox="0 0 18 16">
			<path fill-rule="evenodd" clip-rule="evenodd" d="M18 8C18 12.4183 13.9706 16 9 16C7.32191 16 5.75108 15.5918 4.40637 14.8809L0 16L1.50559 12.4312C0.554401 11.1626 0 9.63886 0 8C0 3.58172 4.02944 0 9 0C13.9706 0 18 3.58172 18 8ZM5.625 6.85714H3.375V9.14286H5.625V6.85714ZM14.625 6.85714H12.375V9.14286H14.625V6.85714ZM7.875 6.85714H10.125V9.14286H7.875V6.85714Z" fill="currentColor" />
		</symbol>

		<symbol id="gal-ochka" width="100%" height="100%" viewBox="0 0 15 11">
			<path fill-rule="evenodd" clip-rule="evenodd" d="M5.08991 7.91058L12.834 0.166504L14.0125 1.34502L5.08991 10.2676L0.333984 5.51168L1.5125 4.33317L5.08991 7.91058Z" fill="currentColor" />
		</symbol>
		<symbol id="to-right" width="100%" height="100%" viewBox="0 0 6 10">
			<path d="M4.09404 5L0.231231 1.29326C-0.0770772 0.997411 -0.0770772 0.517741 0.231231 0.221889C0.53954 -0.0739629 1.03941 -0.0739629 1.34772 0.221889L5.76877 4.46431C6.07708 4.76016 6.07708 5.23984 5.76877 5.53569L1.34772 9.77811C1.03941 10.074 0.53954 10.074 0.231231 9.77811C-0.0770772 9.48226 -0.0770772 9.00259 0.231231 8.70674L4.09404 5Z" fill="currentColor" />
		</symbol>
		<symbol id="to-left-double" width="100%" height="100%" viewBox="0 0 13 12">
			<path fill-rule="evenodd" clip-rule="evenodd" d="M12.7071 11.7071C12.3166 12.0976 11.6834 12.0976 11.2929 11.7071L6.29289 6.70711C5.90237 6.31658 5.90237 5.68342 6.29289 5.29289L11.2929 0.292894C11.6834 -0.0976307 12.3166 -0.0976306 12.7071 0.292894C13.0976 0.683418 13.0976 1.31658 12.7071 1.70711L8.41421 6L12.7071 10.2929C13.0976 10.6834 13.0976 11.3166 12.7071 11.7071ZM6.70711 11.7071C6.31658 12.0976 5.68342 12.0976 5.29289 11.7071L0.292894 6.70711C-0.0976312 6.31658 -0.0976312 5.68342 0.292894 5.29289L5.29289 0.292894C5.68342 -0.0976312 6.31658 -0.0976312 6.70711 0.292894C7.09763 0.683418 7.09763 1.31658 6.70711 1.70711L2.41421 6L6.70711 10.2929C7.09763 10.6834 7.09763 11.3166 6.70711 11.7071Z" fill="currentColor" />
		</symbol>
		<symbol id="to-right-double" width="100%" height="100%" viewBox="0 0 13 12">
			<path fill-rule="evenodd" clip-rule="evenodd" d="M0.292893 11.7071C0.683417 12.0976 1.31658 12.0976 1.70711 11.7071L6.70711 6.70711C7.09763 6.31658 7.09763 5.68342 6.70711 5.29289L1.70711 0.292894C1.31658 -0.0976307 0.683417 -0.0976306 0.292893 0.292894C-0.0976305 0.683418 -0.0976305 1.31658 0.292893 1.70711L4.58579 6L0.292893 10.2929C-0.0976305 10.6834 -0.0976305 11.3166 0.292893 11.7071ZM6.29289 11.7071C6.68342 12.0976 7.31658 12.0976 7.70711 11.7071L12.7071 6.70711C13.0976 6.31658 13.0976 5.68342 12.7071 5.29289L7.70711 0.292894C7.31658 -0.0976312 6.68342 -0.0976312 6.29289 0.292894C5.90237 0.683418 5.90237 1.31658 6.29289 1.70711L10.5858 6L6.29289 10.2929C5.90237 10.6834 5.90237 11.3166 6.29289 11.7071Z" fill="currentColor" />
		</symbol>


	</defs>
</svg>